<?xml version="1.0" encoding="utf-8"?>
<!-- Generator: Adobe Illustrator 21.0.0, SVG Export Plug-In . SVG Version: 6.00 Build 0)  -->
<svg version="1.1" id="Layer_1" xmlns="http://www.w3.org/2000/svg" xmlns:xlink="http://www.w3.org/1999/xlink" x="0px" y="0px"
	 viewBox="0 0 99.3 206" style="enable-background:new 0 0 99.3 206;" xml:space="preserve">
<style type="text/css">
	.st0{fill:#FFFFFF;}
	.st1{fill:none;}
	.st2{fill:#707070;}
</style>
<polygon class="st0" points="0,0 0.2,55.2 3,52.9 9.8,17.4 15.3,3.7 84.8,4.7 92.2,29.1 96.3,56.7 99.3,57.4 99.3,0 0,0 "/>
<rect x="-5.5" y="16.7" class="st1" width="114" height="203"/>
<path id="Path_27" class="st2" d="M85.1,0.2c0.9-0.2,1.8,0.5,2,1.4c5.3,15.4,9,31.2,11.3,47.2c1,6,1.2,12.1,0.5,18.2
	c-3,19.2-13.5,32.5-31.4,39.9c-8.1,3.3-12.3,9.3-12.3,18c-0.1,17.3,0,34.6-0.2,51.8c-0.2,6.1,2.5,11.9,7.2,15.8
	c4.1,3.5,9,6.1,14.2,7.5c1.3,0.4,1.3,1,1,2c-0.5,1.5-1.7,2.5-3.2,2.8c-2.4,0.6-4.9,0.9-7.5,1c-12.6,0.1-25.2,0-37.8-0.1
	c-1.8-0.1-3.7-0.3-5.5-0.8c-1.4-0.3-2.5-1.5-2.7-2.9c-0.2-1.1,0-1.8,1.3-2.2c4.7-1.2,9.1-3.3,13-6.2c5.6-3.9,8.8-10.2,8.6-17
	c-0.1-17.7,0.1-35.4,0.1-53c0-1.4-0.1-2.7-0.4-4c-1.5-6.6-6.1-10.4-12-12.9C18,101.6,7.5,90.7,2.8,77.2c-3.3-9.1-3.3-18.4-2-27.8
	C3.2,33,7.2,16.9,12.6,1.3c0.2-0.8,1-1.4,1.8-1.3C26.2,0.1,38,0.1,49.7,0.2S73.3,0.2,85.1,0.2z M18.6,6.3c-0.9-0.1-1.7,0.5-1.9,1.4
	C12.1,21.1,8.6,34.9,6.5,49C5.3,57.5,5.1,66,8,74.3c7.8,23,32.8,35.3,55.9,27.5c15.7-5.3,27.1-19.1,29.4-35.5c0.7-6,0.5-12-0.5-17.9
	c-2-13.7-5.3-27.2-9.8-40.4c-0.2-1-1.1-1.7-2.1-1.5c-10.4,0-20.8,0-31.3-0.1C39.3,6.4,28.9,6.3,18.6,6.3z"/>
</svg>
