<?xml version="1.0" encoding="utf-8"?>
<!-- Generator: Adobe Illustrator 25.0.1, SVG Export Plug-In . SVG Version: 6.00 Build 0)  -->
<svg version="1.1" id="Capa_1" xmlns="http://www.w3.org/2000/svg" xmlns:xlink="http://www.w3.org/1999/xlink" x="0px" y="0px"
	 viewBox="0 0 534 148" style="enable-background:new 0 0 534 148;" xml:space="preserve">
<style type="text/css">
	.st0{fill:#6F6259;}
	.st1{fill:#752157;}
</style>
<g>
	<g>
		<path class="st0" d="M130.26,70.16c5.23-2.85,7.98-7.75,7.98-14.26c0-10.37-7.65-17.06-19.5-17.06H97v70.5h24.99
			c13.52,0,22.24-7.98,22.24-20.31C144.23,79.96,139.05,73.03,130.26,70.16z M101.66,72.97h19.82c11.33,0,18.09,6,18.09,16.06
			c0,10.21-6.59,16.06-18.09,16.06h-19.82V72.97z M120.46,68.71h-18.8V43.1h16.77c9.62,0,15.14,4.67,15.14,12.81
			C133.58,64.16,128.92,68.71,120.46,68.71z"/>
		<path class="st0" d="M187.82,38.03c-20.22,0-36.06,15.84-36.06,36.06c0,20.22,15.84,36.06,36.06,36.06
			c20.22,0,36.06-15.84,36.06-36.06C223.88,53.87,208.04,38.03,187.82,38.03z M187.82,105.8c-17.84,0-31.3-13.63-31.3-31.7
			c0-18.07,13.46-31.7,31.3-31.7c17.84,0,31.3,13.63,31.3,31.7C219.12,92.17,205.66,105.8,187.82,105.8z"/>
		<polygon class="st0" points="285.76,99.92 238.67,37.4 238.46,37.11 236.99,37.11 236.99,109.34 241.35,109.34 241.35,48.26 
			288.45,110.79 288.66,111.07 290.12,111.07 290.12,38.84 285.76,38.84 		"/>
		<polygon class="st0" points="331.87,101.13 307.26,38.84 302.39,38.84 330.92,110.62 331.09,111.07 332.45,111.07 361.16,38.84 
			356.49,38.84 		"/>
		<rect x="373.83" y="38.84" class="st0" width="4.66" height="70.5"/>
		<polygon class="st0" points="420.67,101.13 396.05,38.84 391.18,38.84 419.7,110.62 419.88,111.07 421.24,111.07 449.95,38.84 
			445.28,38.84 		"/>
		<rect x="462.63" y="38.84" class="st0" width="4.66" height="70.5"/>
		<path class="st0" d="M528.45,65.15c0-15.98-11.13-26.31-28.34-26.31h-13.71v70.5h4.66V91.36h9.04c2.05,0,4-0.18,5.7-0.37
			l15.41,18.35h5.91l-16.33-19.43C521.87,86.49,528.45,77.31,528.45,65.15z M491.06,43.1h8.64c21.74,0,24.09,15.42,24.09,22.06
			c0,13.95-8.78,21.95-24.09,21.95h-8.64V43.1z"/>
	</g>
	<g>
		<path class="st1" d="M29.33,39.6c0,7.11-5.76,12.87-12.87,12.87c-7.11,0-12.87-5.76-12.87-12.87c0-7.11,5.76-12.87,12.87-12.87
			C23.57,26.72,29.33,32.49,29.33,39.6z"/>
		<path class="st1" d="M64.38,39.6c0,7.11-5.76,12.87-12.87,12.87c-7.11,0-12.87-5.76-12.87-12.87c0-7.11,5.76-12.87,12.87-12.87
			C58.61,26.72,64.38,32.49,64.38,39.6z"/>
		<path class="st1" d="M29.33,74.09c0,7.11-5.76,12.87-12.87,12.87c-7.11,0-12.87-5.76-12.87-12.87c0-7.11,5.76-12.87,12.87-12.87
			C23.57,61.22,29.33,66.98,29.33,74.09z"/>
		<path class="st1" d="M64.38,74.09c0,7.11-5.76,12.87-12.87,12.87c-7.11,0-12.87-5.76-12.87-12.87c0-7.11,5.76-12.87,12.87-12.87
			C58.61,61.22,64.38,66.98,64.38,74.09z"/>
		<path class="st1" d="M29.33,108.59c0,7.11-5.76,12.87-12.87,12.87c-7.11,0-12.87-5.76-12.87-12.87c0-7.11,5.76-12.87,12.87-12.87
			C23.57,95.71,29.33,101.48,29.33,108.59z"/>
		<path class="st1" d="M64.38,108.59c0,7.11-5.76,12.87-12.87,12.87c-7.11,0-12.87-5.76-12.87-12.87c0-7.11,5.76-12.87,12.87-12.87
			C58.61,95.71,64.38,101.48,64.38,108.59z"/>
	</g>
</g>
</svg>
