<?xml version="1.0" encoding="UTF-8"?>
<!DOCTYPE svg PUBLIC "-//W3C//DTD SVG 1.1//EN" "http://www.w3.org/Graphics/SVG/1.1/DTD/svg11.dtd">
<svg version="1.2" width="141.32mm" height="39.12mm" viewBox="3143 7971 14132 3912" preserveAspectRatio="xMidYMid" fill-rule="evenodd" stroke-width="28.222" stroke-linejoin="round" xmlns="http://www.w3.org/2000/svg" xmlns:ooo="http://xml.openoffice.org/svg/export" xmlns:xlink="http://www.w3.org/1999/xlink" xmlns:presentation="http://sun.com/xmlns/staroffice/presentation" xmlns:smil="http://www.w3.org/2001/SMIL20/" xmlns:anim="urn:oasis:names:tc:opendocument:xmlns:animation:1.0" xml:space="preserve">
 <defs class="ClipPathGroup">
  <clipPath id="presentation_clip_path" clipPathUnits="userSpaceOnUse">
   <rect x="3143" y="7971" width="14132" height="3912"/>
  </clipPath>
  <clipPath id="presentation_clip_path_shrink" clipPathUnits="userSpaceOnUse">
   <rect x="3157" y="7974" width="14104" height="3905"/>
  </clipPath>
 </defs>
 <defs class="TextShapeIndex">
  <g ooo:slide="id1" ooo:id-list="id3 id4 id5 id6 id7 id8 id9 id10 id11 id12 id13 id14 id15 id16 id17 id18 id19 id20"/>
 </defs>
 <defs class="EmbeddedBulletChars">
  <g id="bullet-char-template-57356" transform="scale(0.00048828125,-0.00048828125)">
   <path d="M 580,1141 L 1163,571 580,0 -4,571 580,1141 Z"/>
  </g>
  <g id="bullet-char-template-57354" transform="scale(0.00048828125,-0.00048828125)">
   <path d="M 8,1128 L 1137,1128 1137,0 8,0 8,1128 Z"/>
  </g>
  <g id="bullet-char-template-10146" transform="scale(0.00048828125,-0.00048828125)">
   <path d="M 174,0 L 602,739 174,1481 1456,739 174,0 Z M 1358,739 L 309,1346 659,739 1358,739 Z"/>
  </g>
  <g id="bullet-char-template-10132" transform="scale(0.00048828125,-0.00048828125)">
   <path d="M 2015,739 L 1276,0 717,0 1260,543 174,543 174,936 1260,936 717,1481 1274,1481 2015,739 Z"/>
  </g>
  <g id="bullet-char-template-10007" transform="scale(0.00048828125,-0.00048828125)">
   <path d="M 0,-2 C -7,14 -16,27 -25,37 L 356,567 C 262,823 215,952 215,954 215,979 228,992 255,992 264,992 276,990 289,987 310,991 331,999 354,1012 L 381,999 492,748 772,1049 836,1024 860,1049 C 881,1039 901,1025 922,1006 886,937 835,863 770,784 769,783 710,716 594,584 L 774,223 C 774,196 753,168 711,139 L 727,119 C 717,90 699,76 672,76 641,76 570,178 457,381 L 164,-76 C 142,-110 111,-127 72,-127 30,-127 9,-110 8,-76 1,-67 -2,-52 -2,-32 -2,-23 -1,-13 0,-2 Z"/>
  </g>
  <g id="bullet-char-template-10004" transform="scale(0.00048828125,-0.00048828125)">
   <path d="M 285,-33 C 182,-33 111,30 74,156 52,228 41,333 41,471 41,549 55,616 82,672 116,743 169,778 240,778 293,778 328,747 346,684 L 369,508 C 377,444 397,411 428,410 L 1163,1116 C 1174,1127 1196,1133 1229,1133 1271,1133 1292,1118 1292,1087 L 1292,965 C 1292,929 1282,901 1262,881 L 442,47 C 390,-6 338,-33 285,-33 Z"/>
  </g>
  <g id="bullet-char-template-9679" transform="scale(0.00048828125,-0.00048828125)">
   <path d="M 813,0 C 632,0 489,54 383,161 276,268 223,411 223,592 223,773 276,916 383,1023 489,1130 632,1184 813,1184 992,1184 1136,1130 1245,1023 1353,916 1407,772 1407,592 1407,412 1353,268 1245,161 1136,54 992,0 813,0 Z"/>
  </g>
  <g id="bullet-char-template-8226" transform="scale(0.00048828125,-0.00048828125)">
   <path d="M 346,457 C 273,457 209,483 155,535 101,586 74,649 74,723 74,796 101,859 155,911 209,963 273,989 346,989 419,989 480,963 531,910 582,859 608,796 608,723 608,648 583,586 532,535 482,483 420,457 346,457 Z"/>
  </g>
  <g id="bullet-char-template-8211" transform="scale(0.00048828125,-0.00048828125)">
   <path d="M -4,459 L 1135,459 1135,606 -4,606 -4,459 Z"/>
  </g>
  <g id="bullet-char-template-61548" transform="scale(0.00048828125,-0.00048828125)">
   <path d="M 173,740 C 173,903 231,1043 346,1159 462,1274 601,1332 765,1332 928,1332 1067,1274 1183,1159 1299,1043 1357,903 1357,740 1357,577 1299,437 1183,322 1067,206 928,148 765,148 601,148 462,206 346,322 231,437 173,577 173,740 Z"/>
  </g>
 </defs>
 <defs class="TextEmbeddedBitmaps"/>
 <g class="SlideGroup">
  <g>
   <g id="container-id1">
    <g id="id1" class="Slide" clip-path="url(#presentation_clip_path)">
     <g class="Page">
      <g class="com.sun.star.drawing.ClosedBezierShape">
       <g id="id3">
        <rect class="BoundingBox" stroke="none" fill="none" x="6452" y="9676" width="1187" height="1771"/>
        <path fill="rgb(111,98,88)" stroke="none" d="M 7041,10427 L 6569,10427 6569,9784 6990,9784 C 7231,9784 7370,9901 7370,10105 7370,10312 7253,10427 7041,10427 Z M 6569,10533 L 7066,10533 C 7351,10533 7521,10684 7521,10936 7521,11192 7355,11339 7066,11339 L 6569,11339 6569,10533 Z M 7287,10463 C 7418,10391 7487,10269 7487,10105 7487,9845 7295,9677 6998,9677 L 6452,9677 6452,11446 7079,11446 C 7418,11446 7638,11246 7638,10936 7638,10709 7507,10535 7287,10463 Z"/>
       </g>
      </g>
      <g class="com.sun.star.drawing.ClosedBezierShape">
       <g id="id4">
        <rect class="BoundingBox" stroke="none" fill="none" x="7826" y="9657" width="1812" height="1811"/>
        <path fill="rgb(111,98,88)" stroke="none" d="M 8731,11358 C 8283,11358 7945,11016 7945,10562 7945,10108 8283,9766 8731,9766 9179,9766 9516,10108 9516,10562 9516,11016 9179,11358 8731,11358 Z M 8731,9657 C 8223,9657 7826,10054 7826,10562 7826,11069 8223,11467 8731,11467 9238,11467 9636,11069 9636,10562 9636,10054 9238,9657 8731,9657 Z"/>
       </g>
      </g>
      <g class="com.sun.star.drawing.PolyPolygonShape">
       <g id="id5">
        <rect class="BoundingBox" stroke="none" fill="none" x="9963" y="9634" width="1336" height="1857"/>
        <path fill="rgb(111,98,88)" stroke="none" d="M 11187,11210 L 10005,9641 10000,9634 9963,9634 9963,11447 10072,11447 10072,9914 11255,11483 11260,11490 11297,11490 11297,9677 11187,9677 11187,11210 Z M 11187,11210 L 11187,11210 Z"/>
       </g>
      </g>
      <g class="com.sun.star.drawing.PolyPolygonShape">
       <g id="id6">
        <rect class="BoundingBox" stroke="none" fill="none" x="11603" y="9677" width="1476" height="1813"/>
        <path fill="rgb(111,98,88)" stroke="none" d="M 12343,11240 L 11725,9677 11603,9677 12319,11478 12324,11489 12358,11489 13078,9677 12961,9677 12343,11240 Z M 12343,11240 L 12343,11240 Z"/>
       </g>
      </g>
      <g class="com.sun.star.drawing.PolyPolygonShape">
       <g id="id7">
        <rect class="BoundingBox" stroke="none" fill="none" x="13395" y="9676" width="119" height="1771"/>
        <path fill="rgb(111,98,88)" stroke="none" d="M 13395,11446 L 13513,11446 13513,9677 13395,9677 13395,11446 Z M 13395,11446 L 13395,11446 Z"/>
       </g>
      </g>
      <g class="com.sun.star.drawing.PolyPolygonShape">
       <g id="id8">
        <rect class="BoundingBox" stroke="none" fill="none" x="13831" y="9677" width="1476" height="1813"/>
        <path fill="rgb(111,98,88)" stroke="none" d="M 14571,11240 L 13953,9677 13831,9677 14547,11478 14551,11489 14586,11489 15306,9677 15189,9677 14571,11240 Z M 14571,11240 L 14571,11240 Z"/>
       </g>
      </g>
      <g class="com.sun.star.drawing.PolyPolygonShape">
       <g id="id9">
        <rect class="BoundingBox" stroke="none" fill="none" x="15622" y="9676" width="119" height="1771"/>
        <path fill="rgb(111,98,88)" stroke="none" d="M 15622,11446 L 15740,11446 15740,9677 15622,9677 15622,11446 Z M 15622,11446 L 15622,11446 Z"/>
       </g>
      </g>
      <g class="com.sun.star.drawing.ClosedBezierShape">
       <g id="id10">
        <rect class="BoundingBox" stroke="none" fill="none" x="16219" y="9676" width="1057" height="1771"/>
        <path fill="rgb(111,98,88)" stroke="none" d="M 16336,9784 L 16553,9784 C 17099,9784 17158,10171 17158,10337 17158,10687 16937,10888 16553,10888 L 16336,10888 16336,9784 Z M 17275,10337 C 17275,9936 16995,9677 16563,9677 L 16219,9677 16219,11446 16336,11446 16336,10995 16563,10995 C 16615,10995 16664,10990 16706,10986 L 17093,11446 17241,11446 16832,10959 C 17110,10873 17275,10643 17275,10337 Z"/>
       </g>
      </g>
      <g class="com.sun.star.drawing.ClosedBezierShape">
       <g id="id11">
        <rect class="BoundingBox" stroke="none" fill="none" x="6452" y="8449" width="901" height="918"/>
        <path fill="rgb(111,98,88)" stroke="none" d="M 6954,8449 C 7105,8449 7329,8500 7329,8685 7329,8789 7251,8844 7170,8844 7093,8844 7023,8798 7018,8701 7056,8684 7078,8643 7078,8597 7078,8526 7030,8455 6950,8455 6814,8455 6792,8648 6792,8794 6792,9107 6923,9237 7066,9237 7176,9237 7279,9174 7346,9033 L 7352,9036 C 7268,9218 7122,9366 6889,9366 6646,9366 6452,9192 6452,8922 6452,8643 6659,8449 6954,8449 Z"/>
       </g>
      </g>
      <g class="com.sun.star.drawing.PolyPolygonShape">
       <g id="id12">
        <rect class="BoundingBox" stroke="none" fill="none" x="7330" y="8010" width="639" height="1344"/>
        <path fill="rgb(111,98,88)" stroke="none" d="M 7331,8081 L 7330,8076 7820,8010 7820,9348 7968,9348 7968,9353 7357,9353 7357,9348 7505,9348 7505,8058 7331,8081 Z M 7331,8081 L 7331,8081 Z"/>
       </g>
      </g>
      <g class="com.sun.star.drawing.ClosedBezierShape">
       <g id="id13">
        <rect class="BoundingBox" stroke="none" fill="none" x="7908" y="8449" width="1210" height="918"/>
        <path fill="rgb(111,98,88)" stroke="none" d="M 8642,8497 L 8514,8514 8513,8509 8957,8449 8957,9160 C 8957,9310 9026,9308 9114,9233 L 9117,9237 C 9039,9303 8942,9366 8819,9366 8716,9366 8644,9289 8642,9129 8606,9272 8490,9359 8338,9359 8188,9359 8071,9276 8071,9109 L 8071,8497 7909,8519 7908,8514 8386,8449 8386,9130 C 8386,9197 8389,9300 8477,9300 8571,9300 8642,9173 8642,9072 L 8642,8497 Z M 8642,8497 L 8642,8497 Z"/>
       </g>
      </g>
      <g class="com.sun.star.drawing.ClosedBezierShape">
       <g id="id14">
        <rect class="BoundingBox" stroke="none" fill="none" x="9026" y="8009" width="1098" height="1357"/>
        <path fill="rgb(111,98,88)" stroke="none" d="M 9516,9179 C 9516,9288 9534,9359 9633,9359 9752,9359 9789,9219 9789,8904 9789,8693 9788,8496 9657,8496 9579,8496 9528,8605 9516,8665 L 9516,9179 Z M 9027,8082 L 9026,8077 9519,8010 9514,8649 C 9546,8525 9645,8447 9778,8447 9983,8447 10123,8607 10123,8853 10123,9124 9929,9365 9633,9365 9521,9365 9432,9285 9325,9285 9254,9285 9225,9329 9201,9365 L 9201,8059 9027,8082 Z M 9027,8082 L 9027,8082 Z"/>
       </g>
      </g>
      <g class="com.sun.star.drawing.ClosedBezierShape">
       <g id="id15">
        <rect class="BoundingBox" stroke="none" fill="none" x="3143" y="7971" width="1065" height="1065"/>
        <path fill="rgb(114,32,83)" stroke="none" d="M 4207,8503 C 4207,8797 3969,9035 3675,9035 3381,9035 3143,8797 3143,8503 3143,8209 3381,7971 3675,7971 3969,7971 4207,8209 4207,8503 Z"/>
       </g>
      </g>
      <g class="com.sun.star.drawing.ClosedBezierShape">
       <g id="id16">
        <rect class="BoundingBox" stroke="none" fill="none" x="4590" y="7971" width="1065" height="1065"/>
        <path fill="rgb(114,32,83)" stroke="none" d="M 5654,8503 C 5654,8797 5416,9035 5122,9035 4828,9035 4590,8797 4590,8503 4590,8209 4828,7971 5122,7971 5416,7971 5654,8209 5654,8503 Z"/>
       </g>
      </g>
      <g class="com.sun.star.drawing.ClosedBezierShape">
       <g id="id17">
        <rect class="BoundingBox" stroke="none" fill="none" x="3143" y="9395" width="1065" height="1065"/>
        <path fill="rgb(114,32,83)" stroke="none" d="M 4207,9927 C 4207,10221 3969,10459 3675,10459 3381,10459 3143,10221 3143,9927 3143,9633 3381,9395 3675,9395 3969,9395 4207,9633 4207,9927 Z"/>
       </g>
      </g>
      <g class="com.sun.star.drawing.ClosedBezierShape">
       <g id="id18">
        <rect class="BoundingBox" stroke="none" fill="none" x="4590" y="9395" width="1065" height="1065"/>
        <path fill="rgb(114,32,83)" stroke="none" d="M 5654,9927 C 5654,10221 5416,10459 5122,10459 4828,10459 4590,10221 4590,9927 4590,9633 4828,9395 5122,9395 5416,9395 5654,9633 5654,9927 Z"/>
       </g>
      </g>
      <g class="com.sun.star.drawing.ClosedBezierShape">
       <g id="id19">
        <rect class="BoundingBox" stroke="none" fill="none" x="3143" y="10819" width="1065" height="1065"/>
        <path fill="rgb(114,32,83)" stroke="none" d="M 4207,11351 C 4207,11645 3969,11883 3675,11883 3381,11883 3143,11645 3143,11351 3143,11057 3381,10819 3675,10819 3969,10819 4207,11057 4207,11351 Z"/>
       </g>
      </g>
      <g class="com.sun.star.drawing.ClosedBezierShape">
       <g id="id20">
        <rect class="BoundingBox" stroke="none" fill="none" x="4590" y="10819" width="1065" height="1065"/>
        <path fill="rgb(114,32,83)" stroke="none" d="M 5654,11351 C 5654,11645 5416,11883 5122,11883 4828,11883 4590,11645 4590,11351 4590,11057 4828,10819 5122,10819 5416,10819 5654,11057 5654,11351 Z"/>
       </g>
      </g>
     </g>
    </g>
   </g>
  </g>
 </g>
</svg>